<?xml version="1.0" encoding="UTF-8"?><svg id="Layer_1" xmlns="http://www.w3.org/2000/svg" viewBox="0 0 227 208"><defs><style>.cls-1{stroke-width:0px;}</style></defs><path class="cls-1" d="m113.5,0L0,100.7h25.2v107.3h176.7v-107.3h25.1L113.5,0Zm-36.7,163.3h-21.8v-20.8h21.8v20.8Zm0-21.8h-21.8v-21.8h21.8v21.8Zm21.9,21.8h-20.9v-20.8h20.8v20.8h.1Zm0-21.8h-20.9v-21.8h20.8v21.8h.1Zm74.8,0h-20.8v-21.8h20.8v21.8Zm-21.8-21.8v21.8h-21.8v-21.8h21.8Zm-21.8,22.8h21.8v20.8h-21.8v-20.8Zm22.8,20.8v-20.8h20.8v20.8h-20.8Z"/></svg>