<?xml version="1.0" encoding="UTF-8"?>
<!-- Generator: Adobe Illustrator 19.1.0, SVG Export Plug-In . SVG Version: 6.00 Build 0)  -->
<svg version="1.1" id="Layer_1" xmlns="http://www.w3.org/2000/svg" xmlns:xlink="http://www.w3.org/1999/xlink" x="0px" y="0px" viewBox="0 0 226.9 208" style="enable-background:new 0 0 226.9 208;" xml:space="preserve">
<path d="M113.5,0L0,100.7h25.2V208h176.7V100.7h25.1L113.5,0z M76.8,163.3H55v-20.8h21.8V163.3z M76.8,141.5H55v-21.8h21.8V141.5z   M98.7,163.3H77.8v-20.8h20.8V163.3z M98.7,141.5H77.8v-21.8h20.8V141.5z M173.5,141.5h-20.8v-21.8h20.8V141.5z M151.7,119.7v21.8  h-21.8v-21.8H151.7z M129.9,142.5h21.8v20.8h-21.8V142.5z M152.7,163.3v-20.8h20.8v20.8H152.7z"/>
</svg>